<svg version="1.1" xmlns="http://www.w3.org/2000/svg" xmlns:xlink="http://www.w3.org/1999/xlink" width="70" height="70" viewBox="0,0,70,70"><!-- Generated with https://ivantodorovich.github.io/odoo-icon --><defs><linearGradient x1="70" y1="0" x2="0" y2="70" gradientUnits="userSpaceOnUse" id="color-1"><stop offset="0" stop-color="#ff8451"/><stop offset="1" stop-color="#f4511e"/></linearGradient></defs><g fill="none" fill-rule="nonzero" stroke="none" stroke-width="1" stroke-linecap="butt" stroke-linejoin="miter" stroke-miterlimit="10" stroke-dasharray="" stroke-dashoffset="0" font-family="none" font-weight="none" font-size="none" text-anchor="none" style="mix-blend-mode: normal"><path d="M3.5,70c-1.933,0 -3.5,-1.567 -3.5,-3.5v-63c0,-1.933 1.567,-3.5 3.5,-3.5h63c1.933,0 3.5,1.567 3.5,3.5v63c0,1.933 -1.567,3.5 -3.5,3.5z" id="box" fill="url(#color-1)"/><path d="M65,1h-61c-1.95033,0 -3.2667,0.63396 -3.9491,1.90189c0.28378,-1.64806 1.72001,-2.90189 3.4491,-2.90189h63c1.72965,0 3.16627,1.25466 3.44938,2.90352c-0.69803,-1.26902 -2.34782,-1.90352 -4.94938,-1.90352z" id="topBoxShadow" fill="#ffffff" opacity="0.383"/><path d="M4,69h61c2.66667,0 4.33333,-1 5,-3v0.5c0,1.933 -1.567,3.5 -3.5,3.5h-63c-1.933,0 -3.5,-1.567 -3.5,-3.5c0,-0.1611 0,-0.32777 0,-0.5c0.66667,2 2,3 4,3z" id="bottomBoxShadow" fill="#000000" opacity="0.383"/><path d="M33.23077,19.30769h23v3.53846h-23zM33.23077,51.15385h23v3.53846h-23zM13.76923,35.23077h23v3.53846h-23zM19.07692,28.15385c-3.90873,0 -7.07692,-3.1682 -7.07692,-7.07692c0,-3.90873 3.1682,-7.07692 7.07692,-7.07692c3.90873,0 7.07692,3.1682 7.07692,7.07692c0,3.90873 -3.1682,7.07692 -7.07692,7.07692zM19.07692,17.53846c-1.95436,0 -3.53846,1.5841 -3.53846,3.53846c0,1.95436 1.5841,3.53846 3.53846,3.53846c1.95436,0 3.53846,-1.5841 3.53846,-3.53846c0,-1.95436 -1.5841,-3.53846 -3.53846,-3.53846zM19.07692,60c-3.90873,0 -7.07692,-3.1682 -7.07692,-7.07692c0,-3.90873 3.1682,-7.07692 7.07692,-7.07692c3.90873,0 7.07692,3.1682 7.07692,7.07692c0,3.90873 -3.1682,7.07692 -7.07692,7.07692zM19.07692,49.38462c-1.95436,0 -3.53846,1.5841 -3.53846,3.53846c0,1.95436 1.5841,3.53846 3.53846,3.53846c1.95436,0 3.53846,-1.5841 3.53846,-3.53846c0,-1.95436 -1.5841,-3.53846 -3.53846,-3.53846zM50.92308,44.07692c-3.90873,0 -7.07692,-3.1682 -7.07692,-7.07692c0,-3.90873 3.1682,-7.07692 7.07692,-7.07692c3.90873,0 7.07692,3.1682 7.07692,7.07692c0,3.90873 -3.1682,7.07692 -7.07692,7.07692zM50.92308,33.46154c-1.95436,0 -3.53846,1.5841 -3.53846,3.53846c0,1.95436 1.5841,3.53846 3.53846,3.53846c1.95436,0 3.53846,-1.5841 3.53846,-3.53846c0,-1.95436 -1.5841,-3.53846 -3.53846,-3.53846z" id="shadow" fill="#000000" opacity="0.3"/><path d="M56.23077,17.30769v3.53846l-7.38738,7.38738c0.65757,-0.20184 1.35593,-0.31046 2.07969,-0.31046c3.90873,0 7.07692,3.1682 7.07692,7.07692c0,1.95436 -0.79205,3.72359 -2.07269,5.00423l-9.14961,9.14961h9.45307v3.53846l-17.30769,17.30769h-35.42308c-1.933,0 -3.5,-1.567 -3.5,-3.5l0,-38.35462l14.07269,-14.07269c1.28064,-1.28064 3.04987,-2.07269 5.00423,-2.07269c3.90873,0 7.07692,3.1682 7.07692,7.07692c0,1.95436 -0.79205,3.72359 -2.07269,5.00423l-9.14961,9.14961h2.37615l15.92308,-15.92308z" id="flatShadow" fill="#000000" opacity="0.324"/><path d="M33.23077,17.30769h23v3.53846h-23zM33.23077,49.15385h23v3.53846h-23zM13.76923,33.23077h23v3.53846h-23zM19.07692,26.15385c-3.90873,0 -7.07692,-3.1682 -7.07692,-7.07692c0,-3.90873 3.1682,-7.07692 7.07692,-7.07692c3.90873,0 7.07692,3.1682 7.07692,7.07692c0,3.90873 -3.1682,7.07692 -7.07692,7.07692zM19.07692,15.53846c-1.95436,0 -3.53846,1.5841 -3.53846,3.53846c0,1.95436 1.5841,3.53846 3.53846,3.53846c1.95436,0 3.53846,-1.5841 3.53846,-3.53846c0,-1.95436 -1.5841,-3.53846 -3.53846,-3.53846zM19.07692,58c-3.90873,0 -7.07692,-3.1682 -7.07692,-7.07692c0,-3.90873 3.1682,-7.07692 7.07692,-7.07692c3.90873,0 7.07692,3.1682 7.07692,7.07692c0,3.90873 -3.1682,7.07692 -7.07692,7.07692zM19.07692,47.38462c-1.95436,0 -3.53846,1.5841 -3.53846,3.53846c0,1.95436 1.5841,3.53846 3.53846,3.53846c1.95436,0 3.53846,-1.5841 3.53846,-3.53846c0,-1.95436 -1.5841,-3.53846 -3.53846,-3.53846zM50.92308,42.07692c-3.90873,0 -7.07692,-3.1682 -7.07692,-7.07692c0,-3.90873 3.1682,-7.07692 7.07692,-7.07692c3.90873,0 7.07692,3.1682 7.07692,7.07692c0,3.90873 -3.1682,7.07692 -7.07692,7.07692zM50.92308,31.46154c-1.95436,0 -3.53846,1.5841 -3.53846,3.53846c0,1.95436 1.5841,3.53846 3.53846,3.53846c1.95436,0 3.53846,-1.5841 3.53846,-3.53846c0,-1.95436 -1.5841,-3.53846 -3.53846,-3.53846z" id="icon" fill="#ffffff"/></g></svg>