<svg version="1.1" xmlns="http://www.w3.org/2000/svg" xmlns:xlink="http://www.w3.org/1999/xlink" width="70" height="70" viewBox="0,0,70,70"><!-- Generated with https://ivantodorovich.github.io/odoo-icon --><defs><linearGradient x1="70" y1="0" x2="0" y2="70" gradientUnits="userSpaceOnUse" id="color-1"><stop offset="0" stop-color="#ffe633"/><stop offset="1" stop-color="#ffb300"/></linearGradient></defs><g fill="none" fill-rule="nonzero" stroke="none" stroke-width="1" stroke-linecap="butt" stroke-linejoin="miter" stroke-miterlimit="10" stroke-dasharray="" stroke-dashoffset="0" font-family="none" font-weight="none" font-size="none" text-anchor="none" style="mix-blend-mode: normal"><path d="M3.5,70c-1.933,0 -3.5,-1.567 -3.5,-3.5v-63c0,-1.933 1.567,-3.5 3.5,-3.5h63c1.933,0 3.5,1.567 3.5,3.5v63c0,1.933 -1.567,3.5 -3.5,3.5z" id="box" fill="url(#color-1)"/><path d="M65,1h-61c-1.95033,0 -3.2667,0.63396 -3.9491,1.90189c0.28378,-1.64806 1.72001,-2.90189 3.4491,-2.90189h63c1.72965,0 3.16627,1.25466 3.44938,2.90352c-0.69803,-1.26902 -2.34782,-1.90352 -4.94938,-1.90352z" id="topBoxShadow" fill="#ffffff" opacity="0.383"/><path d="M4,69h61c2.66667,0 4.33333,-1 5,-3v0.5c0,1.933 -1.567,3.5 -3.5,3.5h-63c-1.933,0 -3.5,-1.567 -3.5,-3.5c0,-0.1611 0,-0.32777 0,-0.5c0.66667,2 2,3 4,3z" id="bottomBoxShadow" fill="#000000" opacity="0.383"/><path d="M31.63618,37.00174l-14.26823,14.26823l-4.1183,-4.1183l7.25035,-7.25035h-14.5v-5.79986h14.5l-7.25035,-7.25035l4.1183,-4.1183l14.26823,14.26823M40.80056,10.90132c-9.88893,0 -18.32806,3.10282 -21.66335,7.45289l1.36279,1.24725l2.98728,3.10282c-0.087,-0.05777 -0.087,-0.20324 -0.087,-0.20324c0,-1.44979 6.1771,-5.79986 17.40028,-5.79986c11.22318,0 17.40028,4.35007 17.40028,5.79986c0,1.44979 -6.1771,5.79986 -17.40028,5.79986c-7.59835,0 -12.81844,-2.00103 -15.42848,-3.71183l9.04814,9.04814c2.03026,0.29024 4.17607,0.46424 6.38033,0.46424c6.93088,0 13.13721,-1.53679 17.40028,-3.9443v8.1489c-3.77029,2.75481 -10.3824,4.49484 -17.40028,4.49484c-2.78404,0 -5.51032,-0.29024 -8.00413,-0.78301l-4.78508,4.75584c3.82806,1.16025 8.17813,1.82703 12.7892,1.82703c6.61211,0 12.73144,-1.30502 17.40028,-3.56706v6.46734c0,1.44979 -6.1771,5.79986 -17.40028,5.79986c-11.22318,0 -17.40028,-4.35007 -17.40028,-5.79986v-0.11623l-2.90028,3.01582l-1.33425,1.24725c3.33529,4.35007 11.77442,7.45289 21.63411,7.45289c12.7892,0 23.20014,-5.19085 23.20014,-11.60042v-29.0007c0,-6.40887 -10.3824,-11.60042 -23.20014,-11.60042z" id="shadow" fill="#000000" opacity="0.3"/><path d="M20.04391,15.32497c3.80169,-3.80169 11.66529,-6.42311 20.75387,-6.42365l0.00209,-0.00209c12.81774,0 23.20014,5.19155 23.20014,11.60042v29.0007c0,1.86057 -0.87725,3.61845 -2.43528,5.17648l-15.32317,15.32317h-42.74154c-1.933,0 -3.5,-1.567 -3.5,-3.5l0,-31.13112z" id="flatShadow" fill="#000000" opacity="0.324"/><path d="M31.63618,35.00174l-14.26823,14.26823l-4.1183,-4.1183l7.25035,-7.25035h-14.5v-5.79986h14.5l-7.25035,-7.25035l4.1183,-4.1183l14.26823,14.26823M40.80056,8.90132c-9.88893,0 -18.32806,3.10282 -21.66335,7.45289l1.36279,1.24725l2.98728,3.10282c-0.087,-0.05777 -0.087,-0.20324 -0.087,-0.20324c0,-1.44979 6.1771,-5.79986 17.40028,-5.79986c11.22318,0 17.40028,4.35007 17.40028,5.79986c0,1.44979 -6.1771,5.79986 -17.40028,5.79986c-7.59835,0 -12.81844,-2.00103 -15.42848,-3.71183l9.04814,9.04814c2.03026,0.29024 4.17607,0.46424 6.38033,0.46424c6.93088,0 13.13721,-1.53679 17.40028,-3.9443v8.1489c-3.77029,2.75481 -10.3824,4.49484 -17.40028,4.49484c-2.78404,0 -5.51032,-0.29024 -8.00413,-0.78301l-4.78508,4.75584c3.82806,1.16025 8.17813,1.82703 12.7892,1.82703c6.61211,0 12.73144,-1.30502 17.40028,-3.56706v6.46734c0,1.44979 -6.1771,5.79986 -17.40028,5.79986c-11.22318,0 -17.40028,-4.35007 -17.40028,-5.79986v-0.11623l-2.90028,3.01582l-1.33425,1.24725c3.33529,4.35007 11.77442,7.45289 21.63411,7.45289c12.7892,0 23.20014,-5.19085 23.20014,-11.60042v-29.0007c0,-6.40887 -10.3824,-11.60042 -23.20014,-11.60042z" id="icon" fill="#ffffff"/></g></svg>